<?xml version="1.0" standalone="no"?>
<!DOCTYPE svg PUBLIC "-//W3C//DTD SVG 20010904//EN"
 "http://www.w3.org/TR/2001/REC-SVG-20010904/DTD/svg10.dtd">
<svg version="1.0" xmlns="http://www.w3.org/2000/svg"
 width="61.000000pt" height="17.000000pt" viewBox="0 0 61.000000 17.000000"
 preserveAspectRatio="xMidYMid meet">

<g transform="translate(0.000000,17.000000) scale(0.100000,-0.100000)"
fill="#000000" stroke="none">
<path d="M0 85 l0 -85 305 0 305 0 0 85 0 85 -305 0 -305 0 0 -85z m68 38 c-4
-22 65 -36 99 -20 17 8 27 7 36 -2 9 -9 7 -13 -11 -17 -28 -8 -29 -30 -1 -37
12 -3 18 -10 14 -16 -8 -15 -38 -14 -53 1 -9 9 -12 9 -12 -1 0 -8 -11 -11 -32
-9 -25 2 -34 8 -36 25 -3 18 2 23 20 24 22 0 22 1 3 8 -21 9 -49 -5 -40 -19 7
-11 -5 -40 -16 -40 -5 0 -9 13 -9 29 0 17 -4 32 -9 35 -5 4 -4 17 2 31 14 28
50 35 45 8z m245 -2 c-2 -6 3 -11 11 -11 8 0 22 -7 30 -16 9 -8 16 -11 16 -5
0 16 40 24 55 11 10 -8 19 -8 34 -1 25 14 27 14 45 -5 15 -14 16 -13 16 15 0
21 5 31 15 31 10 0 15 -10 15 -26 0 -23 2 -25 15 -14 20 17 32 4 18 -19 -7
-12 -8 -23 -1 -35 12 -21 2 -34 -14 -18 -9 9 -15 9 -26 -1 -12 -9 -16 -9 -19
0 -4 10 -9 10 -24 0 -15 -9 -23 -9 -40 1 -15 10 -24 11 -32 3 -16 -16 -47 -13
-53 4 -5 13 -8 13 -21 0 -21 -22 -63 -19 -63 3 0 12 -8 18 -25 20 -14 1 -25
-2 -25 -7 0 -5 7 -8 16 -7 9 0 19 -5 21 -11 6 -17 -39 -17 -55 -1 -18 18 -14
56 7 68 25 13 27 13 45 -6 15 -14 16 -13 16 16 0 21 4 30 13 27 6 -2 11 -10
10 -16z"/>
<path d="M316 65 c-3 -8 -1 -15 4 -15 6 0 10 7 10 15 0 8 -2 15 -4 15 -2 0 -6
-7 -10 -15z"/>
<path d="M390 65 c0 -8 5 -15 10 -15 6 0 10 7 10 15 0 8 -4 15 -10 15 -5 0
-10 -7 -10 -15z"/>
<path d="M470 65 c0 -8 5 -15 10 -15 6 0 10 7 10 15 0 8 -4 15 -10 15 -5 0
-10 -7 -10 -15z"/>
</g>
</svg>
