<?xml version="1.0" standalone="no"?>
<!DOCTYPE svg PUBLIC "-//W3C//DTD SVG 20010904//EN"
 "http://www.w3.org/TR/2001/REC-SVG-20010904/DTD/svg10.dtd">
<svg version="1.0" xmlns="http://www.w3.org/2000/svg"
 width="194.000000pt" height="83.000000pt" viewBox="0 0 194.000000 83.000000"
 preserveAspectRatio="xMidYMid meet">

<g transform="translate(0.000000,83.000000) scale(0.100000,-0.100000)"
fill="c22633" stroke="none">
<path d="M0 415 l0 -415 970 0 970 0 -2 413 -3 412 -967 2 -968 3 0 -415z
m396 261 l28 -23 35 24 c48 33 120 28 159 -11 27 -26 27 -27 27 -179 l0 -152
-47 -3 -48 -2 0 126 c0 69 -5 134 -10 145 -15 27 -64 25 -84 -3 -12 -17 -16
-50 -16 -139 0 -129 0 -129 -72 -129 l-28 0 -1 113 c-2 170 -10 189 -74 173
-34 -9 -45 -53 -45 -176 l0 -107 -47 1 -48 1 -3 178 -2 177 49 0 c45 0 49 -2
44 -21 -5 -19 -4 -19 32 5 50 34 113 35 151 2z m507 10 c59 -25 97 -89 97
-162 l0 -34 -115 0 c-109 0 -115 -1 -115 -20 0 -27 43 -70 69 -70 11 0 29 12
40 26 18 23 24 25 65 19 51 -8 56 -19 25 -59 -31 -40 -71 -56 -137 -56 -109 0
-166 65 -164 187 2 78 28 131 81 161 42 25 107 28 154 8z m414 -6 c42 -25 46
-46 47 -210 l1 -134 -45 -1 -45 0 -6 127 c-3 82 -10 132 -18 142 -19 22 -67
20 -91 -4 -18 -18 -20 -33 -20 -140 0 -132 3 -127 -72 -128 l-28 0 0 179 0
179 45 0 c38 0 45 -3 45 -20 0 -18 2 -18 36 5 45 31 106 33 151 5z m162 3 c52
-43 30 -143 -41 -190 -51 -34 -62 -21 -15 18 25 21 37 39 37 56 0 21 -4 24
-22 20 -48 -13 -77 55 -41 95 20 23 55 23 82 1z m300 -10 c26 -20 50 -67 39
-78 -3 -3 -22 -8 -42 -12 -29 -5 -39 -2 -55 18 -14 17 -28 23 -56 22 -86 -2
-64 -43 34 -64 106 -22 148 -60 138 -125 -11 -68 -67 -104 -162 -104 -67 0
-114 18 -144 56 -30 39 -24 57 24 65 35 6 42 3 67 -24 25 -25 33 -29 65 -24
80 13 69 48 -23 71 -116 29 -144 52 -144 119 0 43 31 84 73 97 50 15 155 5
186 -17z m-1531 -369 c28 -19 30 -52 2 -50 -10 0 -25 9 -33 20 -10 13 -20 16
-36 11 -33 -10 -20 -28 34 -46 53 -17 71 -42 61 -84 -16 -64 -166 -54 -166 11
0 22 30 24 47 4 24 -27 73 -27 73 0 0 15 -11 22 -45 31 -24 6 -50 17 -56 25
-17 21 -14 66 7 81 24 18 85 16 112 -3z m220 4 c-2 -7 -16 -15 -33 -18 l-30
-5 -3 -87 c-3 -80 -5 -88 -22 -88 -18 0 -20 7 -20 90 l0 90 -30 0 c-20 0 -30
5 -30 15 0 12 16 15 85 15 63 0 84 -3 83 -12z m169 -3 c13 -9 28 -33 34 -54
29 -99 -59 -173 -150 -126 -58 29 -67 128 -16 173 31 26 99 30 132 7z m229
-10 c20 -30 11 -75 -16 -82 -17 -5 -16 -8 11 -45 35 -49 36 -58 6 -58 -16 0
-34 14 -56 45 -18 25 -39 45 -47 45 -10 0 -14 -13 -14 -45 0 -38 -3 -45 -20
-45 -19 0 -20 7 -20 105 l0 105 70 0 c63 0 71 -2 86 -25z m204 10 c0 -12 -13
-15 -55 -15 -52 0 -55 -1 -55 -25 0 -24 3 -25 53 -25 41 0 54 -4 54 -15 0 -11
-13 -15 -54 -15 -52 0 -53 -1 -53 -30 0 -28 1 -29 58 -32 43 -2 57 -7 57 -18
0 -12 -17 -16 -80 -18 l-80 -3 0 106 0 105 77 0 c63 0 78 -3 78 -15z"/>
<path d="M786 598 c-29 -41 -21 -48 49 -48 70 0 78 7 49 48 -10 15 -25 22 -49
22 -24 0 -39 -7 -49 -22z"/>
<path d="M540 270 c-40 -40 -16 -120 37 -120 49 0 71 77 33 118 -26 27 -44 28
-70 2z"/>
<path d="M750 260 c0 -25 4 -30 24 -30 37 0 56 10 56 30 0 20 -19 30 -56 30
-20 0 -24 -5 -24 -30z"/>
</g>
</svg>
