<?xml version="1.0" standalone="no"?>
<!DOCTYPE svg PUBLIC "-//W3C//DTD SVG 20010904//EN"
 "http://www.w3.org/TR/2001/REC-SVG-20010904/DTD/svg10.dtd">
<svg version="1.0" xmlns="http://www.w3.org/2000/svg"
 width="32.000000pt" height="29.000000pt" viewBox="0 0 32.000000 29.000000"
 preserveAspectRatio="xMidYMid meet">

<g transform="translate(0.000000,29.000000) scale(0.100000,-0.100000)"
fill="#000000" stroke="none">
<path d="M0 145 l0 -145 160 0 160 0 0 145 0 145 -160 0 -160 0 0 -145z m250
70 c14 -19 31 -35 38 -37 30 -7 -57 -94 -109 -109 -44 -14 -78 -7 -110 21 -23
20 -23 21 -3 15 27 -7 54 3 54 21 0 8 -4 14 -9 14 -9 0 -20 26 -27 67 -4 21
-3 22 23 11 15 -7 34 -16 41 -21 7 -6 14 -8 15 -6 2 2 11 16 20 32 23 35 37
34 67 -8z"/>
</g>
</svg>
